<?xml version="1.0" encoding="utf-8"?>
<!-- Generator: Adobe Illustrator 17.0.0, SVG Export Plug-In . SVG Version: 6.00 Build 0)  -->
<!DOCTYPE svg PUBLIC "-//W3C//DTD SVG 1.1//EN" "http://www.w3.org/Graphics/SVG/1.1/DTD/svg11.dtd">
<svg version="1.1" id="Layer_1" xmlns="http://www.w3.org/2000/svg" xmlns:xlink="http://www.w3.org/1999/xlink" x="0px" y="0px"
	 width="175px" height="60px" viewBox="0 0 175 60" enable-background="new 0 0 175 60" xml:space="preserve">
<g>
	<path fill="#CCCCCC" d="M4.58,49.027c0.401,0,0.811,0.053,1.228,0.158c0.416,0.107,0.781,0.318,1.095,0.637l-0.588,0.733
		c-0.304-0.265-0.601-0.437-0.89-0.515s-0.551-0.117-0.786-0.117c-0.226,0-0.453,0.034-0.684,0.104
		c-0.23,0.068-0.438,0.179-0.625,0.331s-0.336,0.354-0.448,0.604s-0.169,0.553-0.169,0.906v1.739c0,0.354,0.057,0.653,0.169,0.899
		c0.112,0.245,0.26,0.444,0.441,0.597c0.181,0.151,0.387,0.265,0.617,0.339s0.463,0.11,0.698,0.11c0.226,0,0.5-0.044,0.823-0.132
		s0.598-0.236,0.823-0.441l0.603,0.691c-0.323,0.283-0.684,0.484-1.08,0.602c-0.397,0.118-0.797,0.178-1.198,0.178
		c-0.432,0-0.823-0.064-1.176-0.191c-0.354-0.127-0.653-0.307-0.9-0.537s-0.438-0.504-0.573-0.823
		c-0.135-0.318-0.202-0.669-0.202-1.051v-2.161c0-0.401,0.072-0.767,0.217-1.096c0.145-0.328,0.346-0.607,0.603-0.838
		c0.257-0.229,0.557-0.408,0.9-0.535C3.82,49.091,4.188,49.027,4.58,49.027z"/>
	<path fill="#CCCCCC" d="M14.268,53.819c0,0.411-0.074,0.781-0.221,1.11c-0.147,0.328-0.354,0.604-0.617,0.83
		c-0.265,0.225-0.576,0.396-0.934,0.514c-0.358,0.118-0.748,0.178-1.169,0.178c-0.422,0-0.812-0.06-1.169-0.178
		c-0.357-0.117-0.666-0.291-0.926-0.521s-0.463-0.507-0.61-0.83c-0.146-0.324-0.221-0.691-0.221-1.103v-2.146
		c0-0.411,0.079-0.778,0.235-1.103c0.157-0.323,0.368-0.598,0.633-0.823s0.575-0.399,0.933-0.521
		c0.358-0.122,0.737-0.185,1.14-0.185c0.421,0,0.811,0.062,1.169,0.185c0.357,0.122,0.666,0.296,0.926,0.521s0.463,0.5,0.61,0.823
		c0.146,0.324,0.221,0.691,0.221,1.103V53.819z M13.312,51.873c0-0.352-0.059-0.649-0.177-0.894
		c-0.118-0.245-0.273-0.444-0.465-0.601c-0.192-0.156-0.403-0.27-0.635-0.338s-0.46-0.103-0.686-0.103
		c-0.236,0-0.473,0.034-0.709,0.103c-0.235,0.068-0.45,0.182-0.642,0.338s-0.347,0.355-0.465,0.601
		c-0.118,0.244-0.177,0.542-0.177,0.894v1.73c0,0.352,0.054,0.652,0.162,0.902c0.108,0.249,0.253,0.451,0.436,0.607
		c0.182,0.157,0.394,0.27,0.635,0.338c0.24,0.068,0.494,0.103,0.76,0.103c0.245,0,0.484-0.036,0.715-0.11
		c0.231-0.072,0.44-0.186,0.628-0.336c0.187-0.152,0.337-0.353,0.449-0.602c0.113-0.25,0.17-0.551,0.17-0.902V51.873z"/>
	<path fill="#CCCCCC" d="M19.676,49.041c0.716,0,1.271,0.217,1.669,0.647c0.396,0.431,0.595,1.063,0.595,1.896v4.792h-0.955v-4.631
		c0-0.646-0.136-1.104-0.406-1.374s-0.637-0.399-1.099-0.39c-0.325,0-0.701,0.091-1.129,0.271c-0.428,0.182-0.858,0.414-1.291,0.699
		v5.424h-0.956v-7.262h0.826l0.13,0.911c0.656-0.401,1.184-0.666,1.58-0.794C19.036,49.105,19.382,49.041,19.676,49.041z"/>
	<path fill="#CCCCCC" d="M26.497,55.656c0.206,0,0.412-0.021,0.617-0.066c0.206-0.043,0.393-0.117,0.559-0.22
		c0.167-0.103,0.302-0.237,0.404-0.404c0.104-0.167,0.154-0.372,0.154-0.618c0-0.312-0.103-0.553-0.309-0.72
		c-0.205-0.167-0.495-0.294-0.867-0.382c-0.343-0.088-0.708-0.164-1.095-0.229c-0.388-0.062-0.742-0.161-1.066-0.293
		c-0.323-0.133-0.59-0.318-0.801-0.559s-0.316-0.576-0.316-1.008c0-0.313,0.064-0.6,0.191-0.859s0.304-0.482,0.529-0.669
		s0.497-0.331,0.815-0.435c0.318-0.102,0.664-0.154,1.037-0.154c0.529,0,0.994,0.053,1.396,0.154
		c0.401,0.104,0.783,0.283,1.146,0.537c-0.079,0.117-0.159,0.238-0.243,0.36c-0.083,0.122-0.164,0.243-0.242,0.36
		c-0.323-0.196-0.651-0.338-0.984-0.427c-0.334-0.088-0.687-0.132-1.059-0.132c-0.5,0-0.902,0.117-1.206,0.353
		s-0.455,0.539-0.455,0.911c0,0.177,0.044,0.326,0.132,0.449c0.088,0.122,0.207,0.225,0.358,0.309
		c0.151,0.083,0.332,0.151,0.542,0.205c0.21,0.055,0.438,0.105,0.682,0.154c0.303,0.059,0.618,0.123,0.945,0.191
		s0.627,0.176,0.901,0.323c0.272,0.147,0.495,0.346,0.666,0.596c0.171,0.249,0.257,0.581,0.257,0.992
		c0,0.313-0.065,0.598-0.195,0.853c-0.131,0.255-0.316,0.475-0.559,0.662c-0.242,0.186-0.532,0.328-0.87,0.426
		c-0.339,0.098-0.719,0.146-1.14,0.146c-0.49,0-0.971-0.057-1.44-0.169c-0.471-0.112-0.937-0.341-1.396-0.683l0.515-0.721
		c0.362,0.284,0.737,0.482,1.124,0.596C25.612,55.601,26.036,55.656,26.497,55.656z"/>
	<path fill="#CCCCCC" d="M35.831,56.377l-0.132-0.882c-0.313,0.196-0.593,0.354-0.838,0.478s-0.466,0.221-0.661,0.294
		c-0.196,0.073-0.373,0.122-0.529,0.147c-0.157,0.023-0.309,0.037-0.456,0.037c-0.765,0-1.354-0.214-1.771-0.641
		c-0.417-0.426-0.625-1.055-0.625-1.889v-4.807h0.956v4.67c0,0.639,0.138,1.094,0.413,1.363s0.644,0.405,1.106,0.405
		c0.324,0,0.696-0.093,1.114-0.28c0.418-0.186,0.848-0.438,1.291-0.751v-5.407h0.984v7.262H35.831z"/>
	<path fill="#CCCCCC" d="M40.109,54.556c0,0.421,0.086,0.69,0.257,0.808c0.172,0.117,0.458,0.166,0.86,0.146l0.029,0.896
		c-0.107,0.02-0.211,0.031-0.309,0.037c-0.098,0.004-0.196,0.008-0.294,0.008c-0.588,0-0.985-0.15-1.19-0.449
		c-0.206-0.299-0.309-0.732-0.309-1.301v-8.85h0.955V54.556z"/>
	<path fill="#CCCCCC" d="M47.194,56.248c-0.255,0.077-0.515,0.13-0.779,0.159c-0.265,0.028-0.466,0.044-0.603,0.044
		c-0.745,0-1.274-0.17-1.588-0.507s-0.471-0.901-0.471-1.694v-4.238h-1.072v-0.896h1.087l0.25-1.705h0.691v1.705h2.087v0.896H44.71
		v3.969c0,0.607,0.101,1.021,0.301,1.242c0.201,0.221,0.513,0.331,0.934,0.331c0.147,0,0.316-0.01,0.508-0.029
		c0.19-0.02,0.39-0.049,0.595-0.089L47.194,56.248z"/>
	<path fill="#CCCCCC" d="M49.973,46.836c0,0.168-0.062,0.312-0.185,0.435c-0.122,0.122-0.267,0.184-0.434,0.184
		c-0.166,0-0.311-0.062-0.434-0.184c-0.122-0.122-0.184-0.267-0.184-0.435c0-0.176,0.062-0.322,0.184-0.44
		c0.123-0.118,0.268-0.177,0.434-0.177c0.167,0,0.312,0.059,0.434,0.177C49.911,46.514,49.973,46.66,49.973,46.836z M48.87,56.377
		v-7.262h0.955v7.262H48.87z"/>
	<path fill="#CCCCCC" d="M55.588,49.041c0.716,0,1.271,0.217,1.669,0.647c0.396,0.431,0.595,1.063,0.595,1.896v4.792h-0.955v-4.631
		c0-0.646-0.136-1.104-0.406-1.374s-0.637-0.399-1.099-0.39c-0.325,0-0.701,0.091-1.129,0.271c-0.428,0.182-0.858,0.414-1.291,0.699
		v5.424h-0.956v-7.262h0.826l0.13,0.911c0.656-0.401,1.184-0.666,1.58-0.794C54.948,49.105,55.294,49.041,55.588,49.041z"/>
	<path fill="#CCCCCC" d="M62.026,49.041c0.127,0,0.271,0.011,0.434,0.03c0.161,0.02,0.346,0.062,0.551,0.124
		c0.206,0.064,0.432,0.155,0.677,0.272c0.245,0.118,0.524,0.274,0.838,0.471l0.13-0.823h0.825v7.762
		c0,0.412-0.078,0.779-0.235,1.103c-0.156,0.323-0.372,0.593-0.646,0.808c-0.274,0.217-0.596,0.381-0.963,0.493
		s-0.757,0.169-1.169,0.169c-0.411,0-0.843-0.064-1.293-0.191c-0.451-0.127-0.853-0.343-1.206-0.646l0.618-0.721
		c0.118,0.107,0.255,0.201,0.413,0.279c0.157,0.078,0.319,0.147,0.486,0.206c0.168,0.06,0.337,0.103,0.51,0.132
		c0.172,0.03,0.331,0.045,0.479,0.045c0.266,0,0.523-0.035,0.774-0.104s0.47-0.179,0.656-0.33c0.187-0.152,0.337-0.351,0.45-0.596
		s0.17-0.544,0.17-0.896l-0.013-1.088c-0.586,0.373-1.082,0.617-1.488,0.734c-0.405,0.118-0.75,0.178-1.033,0.178
		c-0.704,0.009-1.271-0.201-1.701-0.633c-0.431-0.432-0.646-1.059-0.646-1.882v-2.352c0-0.411,0.059-0.776,0.177-1.095
		c0.117-0.318,0.281-0.584,0.492-0.795c0.211-0.21,0.463-0.372,0.757-0.484C61.364,49.098,61.683,49.041,62.026,49.041z
		 M64.525,50.955c-0.443-0.314-0.878-0.555-1.307-0.723c-0.428-0.166-0.799-0.25-1.113-0.25c-0.473,0-0.842,0.135-1.106,0.405
		c-0.266,0.271-0.398,0.729-0.398,1.378v2.005c0,0.639,0.127,1.096,0.383,1.37c0.256,0.275,0.62,0.413,1.093,0.413
		c0.334,0,0.72-0.089,1.158-0.265c0.438-0.178,0.868-0.403,1.291-0.679V50.955z"/>
	<path fill="#CCCCCC" d="M73.978,49.027c0.401,0,0.811,0.053,1.228,0.158c0.416,0.107,0.781,0.318,1.095,0.637l-0.588,0.733
		c-0.304-0.265-0.601-0.437-0.89-0.515s-0.551-0.117-0.786-0.117c-0.226,0-0.453,0.034-0.684,0.104
		c-0.23,0.068-0.438,0.179-0.625,0.331s-0.336,0.354-0.448,0.604s-0.169,0.553-0.169,0.906v1.739c0,0.354,0.057,0.653,0.169,0.899
		c0.112,0.245,0.26,0.444,0.441,0.597c0.181,0.151,0.387,0.265,0.617,0.339s0.463,0.11,0.698,0.11c0.226,0,0.5-0.044,0.823-0.132
		s0.598-0.236,0.823-0.441l0.603,0.691c-0.323,0.283-0.684,0.484-1.08,0.602c-0.397,0.118-0.797,0.178-1.198,0.178
		c-0.432,0-0.823-0.064-1.176-0.191c-0.354-0.127-0.653-0.307-0.9-0.537s-0.438-0.504-0.573-0.823
		c-0.135-0.318-0.202-0.669-0.202-1.051v-2.161c0-0.401,0.072-0.767,0.217-1.096c0.145-0.328,0.346-0.607,0.603-0.838
		c0.257-0.229,0.557-0.408,0.9-0.535C73.218,49.091,73.585,49.027,73.978,49.027z"/>
	<path fill="#CCCCCC" d="M83.665,53.819c0,0.411-0.074,0.781-0.221,1.11c-0.147,0.328-0.354,0.604-0.617,0.83
		c-0.265,0.225-0.576,0.396-0.934,0.514c-0.358,0.118-0.748,0.178-1.169,0.178c-0.422,0-0.812-0.06-1.169-0.178
		c-0.357-0.117-0.666-0.291-0.926-0.521s-0.463-0.507-0.61-0.83c-0.146-0.324-0.221-0.691-0.221-1.103v-2.146
		c0-0.411,0.079-0.778,0.235-1.103c0.157-0.323,0.368-0.598,0.633-0.823s0.575-0.399,0.933-0.521
		c0.358-0.122,0.737-0.185,1.14-0.185c0.421,0,0.811,0.062,1.169,0.185c0.357,0.122,0.666,0.296,0.926,0.521s0.463,0.5,0.61,0.823
		c0.146,0.324,0.221,0.691,0.221,1.103V53.819z M82.709,51.873c0-0.352-0.059-0.649-0.177-0.894
		c-0.118-0.245-0.273-0.444-0.465-0.601c-0.192-0.156-0.403-0.27-0.635-0.338s-0.46-0.103-0.686-0.103
		c-0.236,0-0.473,0.034-0.709,0.103c-0.235,0.068-0.45,0.182-0.642,0.338s-0.347,0.355-0.465,0.601
		c-0.118,0.244-0.177,0.542-0.177,0.894v1.73c0,0.352,0.054,0.652,0.162,0.902c0.108,0.249,0.253,0.451,0.436,0.607
		c0.182,0.157,0.394,0.27,0.635,0.338c0.24,0.068,0.494,0.103,0.76,0.103c0.245,0,0.484-0.036,0.715-0.11
		c0.231-0.072,0.44-0.186,0.628-0.336c0.187-0.152,0.337-0.353,0.449-0.602c0.113-0.25,0.17-0.551,0.17-0.902V51.873z"/>
	<path fill="#CCCCCC" d="M88.745,49.041c0.501,0,0.896,0.111,1.187,0.332c0.291,0.22,0.505,0.502,0.643,0.845
		c0.303-0.255,0.576-0.46,0.82-0.618c0.244-0.156,0.466-0.276,0.667-0.359c0.2-0.084,0.376-0.137,0.527-0.162
		c0.151-0.023,0.295-0.037,0.432-0.037c0.694,0,1.227,0.199,1.598,0.596s0.557,0.992,0.557,1.786v4.954H94.22v-4.719
		c0-0.549-0.102-0.965-0.303-1.25c-0.202-0.283-0.554-0.426-1.056-0.426c-0.305,0-0.63,0.091-0.975,0.271
		c-0.345,0.182-0.724,0.439-1.137,0.772c0.02,0.108,0.032,0.203,0.037,0.286c0.005,0.084,0.007,0.18,0.007,0.287v4.777h-0.955
		v-4.748c0-1.098-0.423-1.646-1.27-1.646c-0.296,0-0.61,0.068-0.945,0.206c-0.334,0.138-0.738,0.377-1.21,0.72v5.469h-0.956v-7.262
		h0.825l0.131,0.926c0.274-0.205,0.523-0.375,0.744-0.507c0.222-0.132,0.426-0.235,0.612-0.309c0.188-0.073,0.359-0.122,0.517-0.147
		C88.444,49.055,88.597,49.041,88.745,49.041z"/>
	<path fill="#CCCCCC" d="M97.865,49.145l0.132,0.853c0.312-0.196,0.596-0.357,0.851-0.485c0.254-0.127,0.48-0.225,0.681-0.293
		c0.2-0.069,0.379-0.115,0.535-0.141c0.156-0.023,0.303-0.037,0.439-0.037c0.704,0,1.272,0.207,1.708,0.618
		c0.435,0.411,0.652,1.054,0.652,1.926v2.322c0,0.823-0.226,1.456-0.675,1.896s-1.069,0.661-1.861,0.661
		c-0.283,0-0.608-0.029-0.975-0.088s-0.818-0.215-1.355-0.471v3.41h-0.955V49.145H97.865z M97.997,54.966
		c0.5,0.226,0.921,0.382,1.265,0.47c0.343,0.089,0.671,0.133,0.984,0.133c0.51,0,0.914-0.135,1.213-0.404s0.448-0.723,0.448-1.359
		v-2.103c0-0.637-0.132-1.083-0.396-1.337c-0.265-0.256-0.623-0.383-1.073-0.383c-0.147,0-0.321,0.024-0.522,0.074
		c-0.2,0.049-0.409,0.117-0.624,0.205c-0.216,0.088-0.434,0.193-0.654,0.316s-0.434,0.252-0.64,0.389V54.966z"/>
	<path fill="#CCCCCC" d="M109.418,55.583c-0.637,0.372-1.156,0.61-1.558,0.713c-0.402,0.103-0.745,0.155-1.029,0.155
		c-0.686,0-1.24-0.185-1.661-0.552c-0.421-0.368-0.632-0.89-0.632-1.565c0-0.393,0.086-0.723,0.257-0.992
		c0.172-0.27,0.385-0.488,0.64-0.654c0.255-0.167,0.529-0.287,0.823-0.36s0.568-0.11,0.823-0.11h2.366v-0.643
		c0-0.564-0.154-0.979-0.463-1.242c-0.309-0.262-0.767-0.394-1.374-0.394c-0.304,0-0.638,0.042-1,0.125s-0.729,0.267-1.103,0.552
		l-0.484-0.736c0.44-0.329,0.884-0.551,1.33-0.665c0.445-0.114,0.89-0.173,1.33-0.173c0.971,0,1.666,0.217,2.088,0.647
		c0.421,0.431,0.632,1.049,0.632,1.853v4.836h-0.823l-0.133-0.779L109.418,55.583z M109.447,53.025h-2.146
		c-0.177,0-0.368,0.012-0.573,0.037c-0.206,0.024-0.397,0.083-0.573,0.176c-0.177,0.094-0.324,0.226-0.441,0.396
		c-0.117,0.172-0.177,0.404-0.177,0.699c0,0.432,0.143,0.747,0.427,0.947c0.284,0.201,0.632,0.302,1.044,0.302
		c0.195,0,0.401-0.029,0.617-0.088c0.216-0.06,0.431-0.132,0.646-0.221s0.424-0.187,0.625-0.294s0.385-0.211,0.551-0.309V53.025z"/>
	<path fill="#CCCCCC" d="M115.827,49.041c0.716,0,1.271,0.217,1.669,0.647c0.396,0.431,0.595,1.063,0.595,1.896v4.792h-0.955v-4.631
		c0-0.646-0.136-1.104-0.406-1.374s-0.637-0.399-1.099-0.39c-0.325,0-0.701,0.091-1.129,0.271c-0.428,0.182-0.858,0.414-1.291,0.699
		v5.424h-0.956v-7.262h0.826l0.13,0.911c0.656-0.401,1.184-0.666,1.58-0.794C115.188,49.105,115.533,49.041,115.827,49.041z"/>
	<path fill="#CCCCCC" d="M120.929,59.316l1.073-3.027l-0.515-0.471l-2.103-6.688h1.029c0.049,0.138,0.12,0.36,0.213,0.669
		c0.094,0.309,0.189,0.632,0.287,0.971c0.098,0.338,0.193,0.66,0.286,0.97c0.094,0.309,0.164,0.532,0.214,0.669l0.955,3.087h0.029
		l1.103-3.087c0.049-0.137,0.13-0.36,0.243-0.669c0.112-0.31,0.228-0.632,0.345-0.97c0.118-0.339,0.23-0.662,0.339-0.971
		c0.107-0.309,0.186-0.531,0.234-0.669h1.029c-0.107,0.284-0.257,0.693-0.448,1.228s-0.409,1.132-0.654,1.793
		c-0.245,0.662-0.5,1.353-0.765,2.073c-0.265,0.72-0.517,1.411-0.757,2.072s-0.458,1.259-0.654,1.794
		c-0.196,0.533-0.343,0.943-0.44,1.227H120.929z"/>
</g>
<g>
	<g>
		<defs>
			<path id="SVGID_1_" d="M34.881,35.699c-1.593-0.009-2.261-0.666-2.268-2.273c-0.012-2.681-0.003-5.362-0.003-8.044
				c0-2.598-0.001-5.197,0-7.795c0-0.199-0.004-0.398,0.013-0.595c0.111-1.345,0.717-1.929,2.063-1.956
				c0.926-0.018,1.854-0.019,2.78,0.001c1.415,0.03,2.152,0.743,2.156,2.158c0.015,5.412,0.018,10.824,0,16.236
				c-0.005,1.568-0.741,2.256-2.308,2.268c-0.392,0.003-0.784,0.004-1.176,0.004C35.719,35.703,35.3,35.702,34.881,35.699
				 M40.85,0.224c-0.797,0.018-1.161,0.427-1.211,1.217c-0.012,0.182-0.01,0.364-0.01,0.546c0,3.362,0,6.723,0,10.085v0.533
				c-0.091-0.033-0.114-0.034-0.121-0.045c-0.082-0.123-0.162-0.248-0.243-0.372c-0.882-1.357-2.124-2.141-3.746-2.17
				c-1.537-0.028-3.084-0.026-4.613,0.111c-1.442,0.129-2.679,0.787-3.614,1.944c-1.035,1.28-1.333,2.785-1.336,4.37
				c-0.01,5.945-0.007,11.89-0.001,17.834c0.001,1.013,0.107,2.018,0.507,2.964c0.913,2.154,2.605,3.247,4.884,3.403
				c1.434,0.098,2.88,0.082,4.318,0.043c1.411-0.039,2.538-0.71,3.356-1.845c0.361-0.501,0.613-1.08,0.971-1.725
				c0.137,0.748,0.243,1.411,0.381,2.068c0.213,1.015,0.521,1.255,1.57,1.258c0.977,0.003,1.954,0.005,2.931,0
				c1.068-0.005,1.453-0.397,1.469-1.479c0.002-0.116,0.001-0.232,0.001-0.348c0-12.188,0-24.375,0-36.563
				c0-0.182,0.006-0.365-0.007-0.546c-0.061-0.862-0.404-1.255-1.265-1.278c-0.69-0.019-1.38-0.027-2.07-0.027
				C42.285,0.198,41.567,0.207,40.85,0.224"/>
		</defs>
		<clipPath id="SVGID_2_">
			<use xlink:href="#SVGID_1_"  overflow="visible"/>
		</clipPath>
		
			<linearGradient id="SVGID_3_" gradientUnits="userSpaceOnUse" x1="-3620.9841" y1="-498.8996" x2="-3620.7805" y2="-498.8996" gradientTransform="matrix(675.0674 2421.2419 2421.2419 -675.0674 3652352.25 8430333)">
			<stop  offset="0" style="stop-color:#7BCCDF"/>
			<stop  offset="0.1457" style="stop-color:#70C2D1"/>
			<stop  offset="0.4197" style="stop-color:#53A7AD"/>
			<stop  offset="0.7897" style="stop-color:#257C73"/>
			<stop  offset="1" style="stop-color:#08614F"/>
		</linearGradient>
		<polygon clip-path="url(#SVGID_2_)" fill="url(#SVGID_3_)" points="44.878,-5.08 56.838,37.815 27.418,46.018 15.459,3.122 		"/>
	</g>
	<g>
		<defs>
			<path id="SVGID_4_" d="M110.439,0.228c-0.788,0.021-1.146,0.451-1.18,1.248c-0.008,0.199-0.004,0.397-0.004,0.596
				c0,8.528,0,17.056,0,25.584c0,3.776-0.002,7.551,0.002,11.327c0.002,1.089,0.378,1.455,1.472,1.458
				c1.109,0.003,2.219,0.001,3.328,0.001c1.626,0,1.86-0.236,1.86-1.873c0-6.955,0-13.91,0.001-20.865
				c0-0.232-0.002-0.464,0.017-0.695c0.102-1.233,0.768-1.907,2.004-1.953c1.025-0.039,2.054-0.038,3.079-0.009
				c1.157,0.033,1.786,0.658,1.891,1.817c0.023,0.247,0.019,0.496,0.019,0.744c0.001,7.104,0,14.208,0.002,21.312
				c0,1.155,0.364,1.518,1.512,1.521c1.225,0.004,2.451,0.003,3.676,0c1.148-0.003,1.519-0.371,1.519-1.519
				c0.001-7.485,0.008-14.97-0.011-22.454c-0.002-0.754-0.094-1.524-0.268-2.258c-0.548-2.312-2.515-3.964-4.893-4.109
				c-1.386-0.084-2.778-0.087-4.168-0.091c-0.424-0.001-0.857,0.081-1.271,0.183c-1.279,0.314-2.235,1.098-2.984,2.164
				c-0.042-0.013-0.083-0.026-0.125-0.039v-0.526c0-3.196,0-6.392,0-9.588c0-0.265,0.012-0.531-0.013-0.794
				c-0.074-0.784-0.419-1.166-1.194-1.184C114,0.209,113.289,0.2,112.578,0.2C111.865,0.2,111.151,0.209,110.439,0.228"/>
		</defs>
		<clipPath id="SVGID_5_">
			<use xlink:href="#SVGID_4_"  overflow="visible"/>
		</clipPath>
		
			<linearGradient id="SVGID_6_" gradientUnits="userSpaceOnUse" x1="-3620.9841" y1="-499.0198" x2="-3620.7805" y2="-499.0198" gradientTransform="matrix(675.0674 2421.2419 2421.2419 -675.0674 3652720.75 8430230)">
			<stop  offset="0" style="stop-color:#7BCCDF"/>
			<stop  offset="0.1457" style="stop-color:#70C2D1"/>
			<stop  offset="0.4197" style="stop-color:#53A7AD"/>
			<stop  offset="0.7897" style="stop-color:#257C73"/>
			<stop  offset="1" style="stop-color:#08614F"/>
		</linearGradient>
		<polygon clip-path="url(#SVGID_5_)" fill="url(#SVGID_6_)" points="128.175,-5.076 140.057,37.541 110.722,45.72 98.84,3.102 		
			"/>
	</g>
	<g>
		<defs>
			<path id="SVGID_7_" d="M14.298,27.537c0.311-0.003,0.396,0.123,0.392,0.414c-0.013,0.976-0.005,1.952-0.005,2.927
				c0,0.893,0.009,1.786-0.002,2.68c-0.017,1.45-0.699,2.188-2.14,2.236c-1.057,0.035-2.118,0.022-3.173-0.032
				c-0.961-0.049-1.599-0.636-1.636-1.602c-0.063-1.65-0.071-3.307-0.01-4.957c0.038-1.026,0.722-1.62,1.761-1.642
				c0.966-0.02,1.932-0.02,2.899-0.019c0.143,0,0.285,0,0.428,0C13.307,27.542,13.803,27.541,14.298,27.537 M8.507,10.013
				c-0.916,0.025-1.863,0.112-2.734,0.375c-1.847,0.556-3.136,1.791-3.789,3.629c-0.603,1.698-0.453,3.463-0.374,5.21
				c0.032,0.716,0.441,1.021,1.208,1.032c1.241,0.018,2.483,0.01,3.725,0.007c1.149-0.002,1.509-0.364,1.524-1.51
				c0.009-0.695-0.014-1.393,0.047-2.084c0.082-0.927,0.696-1.561,1.602-1.603c1.106-0.051,2.219-0.049,3.325,0.001
				c0.833,0.038,1.367,0.56,1.543,1.375c0.059,0.273,0.094,0.557,0.096,0.836c0.009,1.705,0.005,3.41,0.003,5.116
				c0,0.145-0.018,0.29-0.031,0.497h-0.615c-2.036,0-4.073-0.035-6.109,0.016c-0.901,0.022-1.816,0.139-2.692,0.351
				c-2.174,0.526-3.982,2.541-4.098,4.772c-0.13,2.491-0.091,4.994-0.036,7.49c0.023,1.049,0.453,2.027,1.082,2.887
				c1.038,1.419,2.491,2.108,4.197,2.225c1.351,0.093,2.716,0.113,4.068,0.048c2.15-0.104,3.716-1.146,4.596-3.149
				c0.041-0.094,0.114-0.175,0.216-0.328c0.12,0.72,0.214,1.354,0.332,1.984c0.149,0.795,0.527,1.212,1.205,1.231
				c1.141,0.032,2.285,0.037,3.426,0.004c0.742-0.022,1.099-0.419,1.16-1.164c0.016-0.198,0.01-0.397,0.01-0.596
				c0-7.053,0.003-14.106-0.004-21.159c-0.001-0.71-0.017-1.426-0.103-2.129c-0.247-2.012-1.315-3.491-3.05-4.499
				c-1.164-0.676-2.452-0.87-3.772-0.879c-1.092-0.008-2.183-0.019-3.274-0.019C10.298,9.98,9.402,9.988,8.507,10.013"/>
		</defs>
		<clipPath id="SVGID_8_">
			<use xlink:href="#SVGID_7_"  overflow="visible"/>
		</clipPath>
		
			<linearGradient id="SVGID_9_" gradientUnits="userSpaceOnUse" x1="-3620.9841" y1="-498.859" x2="-3620.7805" y2="-498.859" gradientTransform="matrix(675.0674 2421.2419 2421.2419 -675.0674 3652229.5 8430367)">
			<stop  offset="0" style="stop-color:#7BCCDF"/>
			<stop  offset="0.1457" style="stop-color:#70C2D1"/>
			<stop  offset="0.4197" style="stop-color:#53A7AD"/>
			<stop  offset="0.7897" style="stop-color:#257C73"/>
			<stop  offset="1" style="stop-color:#08614F"/>
		</linearGradient>
		<polygon clip-path="url(#SVGID_8_)" fill="url(#SVGID_9_)" points="19.932,4.704 29.363,38.529 2.48,46.024 -6.95,12.2 		"/>
	</g>
	<g>
		<defs>
			<path id="SVGID_10_" d="M147.523,10.314c-0.813,0.026-1.086,0.339-1.228,1.158c-0.199,1.14-0.394,2.282-0.584,3.424
				c-0.999,6.005-1.996,12.012-2.995,18.017c-0.02,0.119-0.062,0.235-0.094,0.352c-0.041,0.004-0.082,0.008-0.123,0.012
				c-0.052-0.142-0.121-0.28-0.151-0.427c-0.064-0.307-0.102-0.62-0.16-0.929c-0.893-4.696-1.787-9.392-2.682-14.087
				c-0.415-2.177-0.822-4.356-1.254-6.529c-0.142-0.711-0.422-0.959-1.157-0.995c-0.991-0.047-1.986-0.037-2.979-0.034
				c-0.628,0.002-1.258,0.013-1.884,0.065c-0.509,0.043-0.793,0.416-0.75,0.921c0.021,0.246,0.069,0.492,0.128,0.732
				c0.515,2.069,1.033,4.138,1.554,6.205c1.593,6.318,3.192,12.634,4.777,18.953c0.416,1.66,1.147,3.309,0.299,5.047
				c-0.007,0.014-0.005,0.033-0.009,0.049c-0.38,1.495-1.091,2.067-2.642,2.105c-0.286,0.007-0.572,0.007-0.858,0.006
				c-0.426,0-0.852-0.001-1.277,0.023c-0.692,0.039-1.041,0.376-1.067,1.06c-0.035,0.942-0.034,1.887,0,2.83
				c0.025,0.698,0.41,1.08,1.1,1.085c1.755,0.013,3.513,0.043,5.265-0.036c1.938-0.087,3.638-0.8,4.963-2.271
				c1.046-1.161,1.629-2.559,1.987-4.055c1.082-4.519,2.148-9.042,3.219-13.563c1.204-5.085,2.407-10.17,3.61-15.255
				c0.19-0.805,0.391-1.607,0.573-2.414c0.207-0.919-0.109-1.438-1.011-1.465c-0.646-0.02-1.293-0.029-1.939-0.029
				C149.275,10.269,148.398,10.286,147.523,10.314"/>
		</defs>
		<clipPath id="SVGID_11_">
			<use xlink:href="#SVGID_10_"  overflow="visible"/>
		</clipPath>
		
			<linearGradient id="SVGID_12_" gradientUnits="userSpaceOnUse" x1="-3620.9841" y1="-499.0546" x2="-3620.7805" y2="-499.0546" gradientTransform="matrix(675.0674 2421.2419 2421.2419 -675.0674 3652823.75 8430201)">
			<stop  offset="0" style="stop-color:#7BCCDF"/>
			<stop  offset="0.1457" style="stop-color:#70C2D1"/>
			<stop  offset="0.4197" style="stop-color:#53A7AD"/>
			<stop  offset="0.7897" style="stop-color:#257C73"/>
			<stop  offset="1" style="stop-color:#08614F"/>
		</linearGradient>
		<polygon clip-path="url(#SVGID_11_)" fill="url(#SVGID_12_)" points="151.731,4.605 163.433,46.576 133.015,55.057 
			121.313,13.086 		"/>
	</g>
	<g>
		<defs>
			<path id="SVGID_13_" d="M161.809,10.012c-0.933,0.025-1.88,0.141-2.79,0.351c-2.114,0.488-4.092,2.66-4.228,4.823
				c-0.143,2.275-0.173,4.57-0.056,6.846c0.126,2.456,1.658,4.218,4.027,4.911c1.268,0.372,2.562,0.657,3.843,0.986
				c1.441,0.37,2.887,0.723,4.318,1.127c0.642,0.181,1.05,0.652,1.066,1.343c0.027,1.174,0.068,2.352-0.001,3.522
				c-0.068,1.153-0.708,1.721-1.874,1.762c-1.009,0.035-2.021,0.034-3.03,0.001c-1.179-0.038-1.784-0.65-1.848-1.833
				c-0.035-0.644-0.003-1.292-0.034-1.937c-0.041-0.856-0.389-1.223-1.226-1.238c-1.357-0.024-2.716-0.027-4.074,0
				c-0.891,0.018-1.235,0.405-1.248,1.313c-0.012,0.795-0.018,1.59,0.001,2.385c0.049,2.027,0.765,3.736,2.413,4.996
				c1.28,0.978,2.749,1.332,4.325,1.342c1.076,0.007,2.153,0.001,3.229,0.001c1.06,0,2.12,0.006,3.18-0.001
				c1.308-0.009,2.572-0.226,3.721-0.891c1.708-0.989,2.864-2.446,2.993-4.418c0.154-2.356,0.145-4.733,0.033-7.093
				c-0.101-2.144-1.196-3.762-3.285-4.466c-1.734-0.585-3.526-0.999-5.294-1.48c-1.211-0.329-2.435-0.616-3.637-0.975
				c-0.662-0.198-1.042-0.729-1.069-1.412c-0.044-1.107-0.058-2.219-0.009-3.325c0.043-0.95,0.691-1.562,1.645-1.593
				c1.125-0.037,2.252-0.039,3.377-0.002c0.953,0.031,1.558,0.566,1.681,1.508c0.091,0.702,0.053,1.42,0.086,2.13
				c0.038,0.829,0.357,1.201,1.182,1.224c1.39,0.037,2.783,0.038,4.172,0.001c0.892-0.024,1.252-0.425,1.248-1.321
				c-0.005-1.075,0.012-2.157-0.106-3.222c-0.223-2.013-1.31-3.493-3.048-4.5c-1.165-0.675-2.454-0.868-3.774-0.877
				c-1.081-0.008-2.161-0.019-3.242-0.019C163.589,9.981,162.699,9.988,161.809,10.012"/>
		</defs>
		<clipPath id="SVGID_14_">
			<use xlink:href="#SVGID_13_"  overflow="visible"/>
		</clipPath>
		
			<linearGradient id="SVGID_15_" gradientUnits="userSpaceOnUse" x1="-3620.9841" y1="-499.0891" x2="-3620.7805" y2="-499.0891" gradientTransform="matrix(675.0674 2421.2419 2421.2419 -675.0674 3652929.25 8430172)">
			<stop  offset="0" style="stop-color:#7BCCDF"/>
			<stop  offset="0.1457" style="stop-color:#70C2D1"/>
			<stop  offset="0.4197" style="stop-color:#53A7AD"/>
			<stop  offset="0.7897" style="stop-color:#257C73"/>
			<stop  offset="1" style="stop-color:#08614F"/>
		</linearGradient>
		<polygon clip-path="url(#SVGID_14_)" fill="url(#SVGID_15_)" points="173.224,4.793 182.623,38.503 156.066,45.908 
			146.667,12.198 		"/>
	</g>
	<g>
		<defs>
			<path id="SVGID_16_" d="M60.242,35.7c-1.714-0.004-2.361-0.65-2.364-2.382c-0.005-2.631-0.001-5.263-0.001-7.895
				c0-2.615,0-5.23,0-7.845c0-0.166-0.004-0.331,0.006-0.496c0.088-1.42,0.712-2.027,2.132-2.047
				c0.91-0.013,1.821-0.018,2.731,0.003c1.418,0.033,2.141,0.743,2.145,2.166c0.013,5.412,0.017,10.824-0.001,16.236
				c-0.005,1.565-0.74,2.247-2.314,2.259c-0.335,0.002-0.67,0.003-1.006,0.003C61.127,35.703,60.685,35.701,60.242,35.7
				 M66.102,0.226c-0.79,0.02-1.15,0.44-1.197,1.233c-0.011,0.181-0.008,0.364-0.008,0.546c-0.001,3.361,0,6.722,0,10.083v0.494
				c-0.193-0.118-0.266-0.245-0.344-0.367c-0.895-1.397-2.166-2.181-3.827-2.203c-1.504-0.02-3.02-0.04-4.512,0.115
				c-1.923,0.2-3.406,1.179-4.296,2.956c-0.565,1.128-0.689,2.337-0.691,3.57c-0.004,3.559-0.008,7.119,0.001,10.679
				c0.007,2.632-0.018,5.266,0.066,7.895c0.097,3.01,2.269,5.218,5.284,5.414c1.402,0.091,2.813,0.081,4.219,0.055
				c1.528-0.028,2.732-0.73,3.587-1.985c0.329-0.482,0.56-1.031,0.876-1.624c0.153,0.825,0.274,1.576,0.435,2.319
				c0.152,0.703,0.5,1.007,1.204,1.021c1.175,0.024,2.351,0.026,3.526,0c0.719-0.016,1.076-0.379,1.173-1.099
				c0.028-0.212,0.025-0.429,0.025-0.644c0-3.629,0-7.258,0-10.888h-1.04c-0.549,0-0.994-0.445-0.994-0.995v-2.673
				c0-0.549,0.445-0.995,0.994-0.995h1.04c0-7.052,0.001-14.103,0-21.155c0-0.166,0.006-0.332-0.009-0.496
				c-0.076-0.843-0.404-1.228-1.24-1.254c-0.704-0.022-1.408-0.031-2.113-0.031C67.541,0.198,66.821,0.208,66.102,0.226"/>
		</defs>
		<clipPath id="SVGID_17_">
			<use xlink:href="#SVGID_16_"  overflow="visible"/>
		</clipPath>
		
			<linearGradient id="SVGID_18_" gradientUnits="userSpaceOnUse" x1="-3620.9841" y1="-498.9375" x2="-3620.7805" y2="-498.9375" gradientTransform="matrix(675.0674 2421.2419 2421.2419 -675.0674 3652467.5 8430301)">
			<stop  offset="0" style="stop-color:#7BCCDF"/>
			<stop  offset="0.1457" style="stop-color:#70C2D1"/>
			<stop  offset="0.4197" style="stop-color:#53A7AD"/>
			<stop  offset="0.7897" style="stop-color:#257C73"/>
			<stop  offset="1" style="stop-color:#08614F"/>
		</linearGradient>
		<polygon clip-path="url(#SVGID_17_)" fill="url(#SVGID_18_)" points="70.155,-5.085 82.114,37.809 52.681,46.015 40.722,3.122 		
			"/>
	</g>
	<g>
		<defs>
			<path id="SVGID_19_" d="M100.855,10.275c-1.082,0.008-1.462,0.359-1.569,1.418l-0.516,23.055
				c-0.048,0.006-0.096,0.013-0.143,0.019c-0.04-0.097-0.099-0.19-0.116-0.29l-4.504-22.929c-0.137-0.796-0.424-1.11-1.195-1.136
				c-1.373-0.046-2.55-0.056-3.922-0.014c-0.81,0.025-1.117,0.358-1.253,1.202l-4.757,22.733c-0.025,0.154-0.108,0.297-0.164,0.446
				c-0.136-0.172-0.158-0.313-0.173-0.456l-0.465-22.919c-0.083-0.709-0.412-1.056-1.128-1.081
				c-1.422-0.049-2.696-0.074-4.117-0.032c-0.948,0.028-1.286,0.501-1.166,1.442l0.848,11.401h1.061c0.55,0,0.995,0.445,0.995,0.995
				v2.673c0,0.55-0.445,0.995-0.995,0.995H76.86l0.855,11.487c0.107,0.794,0.48,1.142,1.291,1.148
				c2.235,0.016,4.471,0.014,6.707,0.001c0.714-0.004,1.072-0.304,1.209-1.004l3.841-17.655c0.046,0.003,0.092,0.007,0.138,0.011
				c0.035,0.156,0.076,0.31,0.104,0.466l3.613,17.136c0.135,0.711,0.485,1.038,1.179,1.042c2.285,0.015,4.57,0.015,6.855-0.003
				c0.684-0.006,1.036-0.326,1.156-0.998l1.909-27.549c0.153-1.202-0.213-1.598-1.438-1.604c-0.629-0.003-1.216-0.005-1.805-0.005
				C101.947,10.269,101.418,10.271,100.855,10.275"/>
		</defs>
		<clipPath id="SVGID_20_">
			<use xlink:href="#SVGID_19_"  overflow="visible"/>
		</clipPath>
		
			<linearGradient id="SVGID_21_" gradientUnits="userSpaceOnUse" x1="-3620.9841" y1="-498.9803" x2="-3620.7805" y2="-498.9803" gradientTransform="matrix(675.0674 2421.2419 2421.2419 -675.0674 3652597 8430265)">
			<stop  offset="0" style="stop-color:#7BCCDF"/>
			<stop  offset="0.1457" style="stop-color:#70C2D1"/>
			<stop  offset="0.4197" style="stop-color:#53A7AD"/>
			<stop  offset="0.7897" style="stop-color:#257C73"/>
			<stop  offset="1" style="stop-color:#08614F"/>
		</linearGradient>
		<polygon clip-path="url(#SVGID_20_)" fill="url(#SVGID_21_)" points="103.683,2.404 113.684,38.27 77.732,48.294 67.732,12.427 		
			"/>
	</g>
</g>
</svg>
